<?xml version="1.0" encoding="utf-8" standalone="no"?>
<!DOCTYPE svg PUBLIC "-//W3C//DTD SVG 1.1//EN"
  "http://www.w3.org/Graphics/SVG/1.1/DTD/svg11.dtd">
<svg xmlns:xlink="http://www.w3.org/1999/xlink" width="460.8pt" height="345.6pt" viewBox="0 0 460.8 345.6" xmlns="http://www.w3.org/2000/svg" version="1.1">
 <metadata>
  <rdf:RDF xmlns:dc="http://purl.org/dc/elements/1.1/" xmlns:cc="http://creativecommons.org/ns#" xmlns:rdf="http://www.w3.org/1999/02/22-rdf-syntax-ns#">
   <cc:Work>
    <dc:type rdf:resource="http://purl.org/dc/dcmitype/StillImage"/>
    <dc:date>2024-09-06T17:50:52.643798</dc:date>
    <dc:format>image/svg+xml</dc:format>
    <dc:creator>
     <cc:Agent>
      <dc:title>Matplotlib v3.8.3, https://matplotlib.org/</dc:title>
     </cc:Agent>
    </dc:creator>
   </cc:Work>
  </rdf:RDF>
 </metadata>
 <defs>
  <style type="text/css">*{stroke-linejoin: round; stroke-linecap: butt}</style>
 </defs>
 <g id="figure_1">
  <g id="patch_1">
   <path d="M 0 345.6 
L 460.8 345.6 
L 460.8 0 
L 0 0 
z
" style="fill: #ffffff"/>
  </g>
  <g id="axes_1">
   <g id="patch_2">
    <path d="M 55.169961 196 
L 450 196 
L 450 29.76 
L 55.169961 29.76 
z
" style="fill: #eaeaf2"/>
   </g>
   <g id="matplotlib.axis_1">
    <g id="xtick_1">
     <g id="text_1">
      <!-- BFS (Distance) -->
      <g style="fill: #262626" transform="translate(74.208713 270.790625) rotate(-90) scale(0.1 -0.1)">
       <defs>
        <path id="ArialMT-42" d="M 469 0 
L 469 4581 
L 2188 4581 
Q 2713 4581 3030 4442 
Q 3347 4303 3526 4014 
Q 3706 3725 3706 3409 
Q 3706 3116 3547 2856 
Q 3388 2597 3066 2438 
Q 3481 2316 3704 2022 
Q 3928 1728 3928 1328 
Q 3928 1006 3792 729 
Q 3656 453 3456 303 
Q 3256 153 2954 76 
Q 2653 0 2216 0 
L 469 0 
z
M 1075 2656 
L 2066 2656 
Q 2469 2656 2644 2709 
Q 2875 2778 2992 2937 
Q 3109 3097 3109 3338 
Q 3109 3566 3000 3739 
Q 2891 3913 2687 3977 
Q 2484 4041 1991 4041 
L 1075 4041 
L 1075 2656 
z
M 1075 541 
L 2216 541 
Q 2509 541 2628 563 
Q 2838 600 2978 687 
Q 3119 775 3209 942 
Q 3300 1109 3300 1328 
Q 3300 1584 3169 1773 
Q 3038 1963 2805 2039 
Q 2572 2116 2134 2116 
L 1075 2116 
L 1075 541 
z
" transform="scale(0.015625)"/>
        <path id="ArialMT-46" d="M 525 0 
L 525 4581 
L 3616 4581 
L 3616 4041 
L 1131 4041 
L 1131 2622 
L 3281 2622 
L 3281 2081 
L 1131 2081 
L 1131 0 
L 525 0 
z
" transform="scale(0.015625)"/>
        <path id="ArialMT-53" d="M 288 1472 
L 859 1522 
Q 900 1178 1048 958 
Q 1197 738 1509 602 
Q 1822 466 2213 466 
Q 2559 466 2825 569 
Q 3091 672 3220 851 
Q 3350 1031 3350 1244 
Q 3350 1459 3225 1620 
Q 3100 1781 2813 1891 
Q 2628 1963 1997 2114 
Q 1366 2266 1113 2400 
Q 784 2572 623 2826 
Q 463 3081 463 3397 
Q 463 3744 659 4045 
Q 856 4347 1234 4503 
Q 1613 4659 2075 4659 
Q 2584 4659 2973 4495 
Q 3363 4331 3572 4012 
Q 3781 3694 3797 3291 
L 3216 3247 
Q 3169 3681 2898 3903 
Q 2628 4125 2100 4125 
Q 1550 4125 1298 3923 
Q 1047 3722 1047 3438 
Q 1047 3191 1225 3031 
Q 1400 2872 2139 2705 
Q 2878 2538 3153 2413 
Q 3553 2228 3743 1945 
Q 3934 1663 3934 1294 
Q 3934 928 3725 604 
Q 3516 281 3123 101 
Q 2731 -78 2241 -78 
Q 1619 -78 1198 103 
Q 778 284 539 648 
Q 300 1013 288 1472 
z
" transform="scale(0.015625)"/>
        <path id="ArialMT-20" transform="scale(0.015625)"/>
        <path id="ArialMT-28" d="M 1497 -1347 
Q 1031 -759 709 28 
Q 388 816 388 1659 
Q 388 2403 628 3084 
Q 909 3875 1497 4659 
L 1900 4659 
Q 1522 4009 1400 3731 
Q 1209 3300 1100 2831 
Q 966 2247 966 1656 
Q 966 153 1900 -1347 
L 1497 -1347 
z
" transform="scale(0.015625)"/>
        <path id="ArialMT-44" d="M 494 0 
L 494 4581 
L 2072 4581 
Q 2606 4581 2888 4516 
Q 3281 4425 3559 4188 
Q 3922 3881 4101 3404 
Q 4281 2928 4281 2316 
Q 4281 1794 4159 1391 
Q 4038 988 3847 723 
Q 3656 459 3429 307 
Q 3203 156 2883 78 
Q 2563 0 2147 0 
L 494 0 
z
M 1100 541 
L 2078 541 
Q 2531 541 2789 625 
Q 3047 709 3200 863 
Q 3416 1078 3536 1442 
Q 3656 1806 3656 2325 
Q 3656 3044 3420 3430 
Q 3184 3816 2847 3947 
Q 2603 4041 2063 4041 
L 1100 4041 
L 1100 541 
z
" transform="scale(0.015625)"/>
        <path id="ArialMT-69" d="M 425 3934 
L 425 4581 
L 988 4581 
L 988 3934 
L 425 3934 
z
M 425 0 
L 425 3319 
L 988 3319 
L 988 0 
L 425 0 
z
" transform="scale(0.015625)"/>
        <path id="ArialMT-73" d="M 197 991 
L 753 1078 
Q 800 744 1014 566 
Q 1228 388 1613 388 
Q 2000 388 2187 545 
Q 2375 703 2375 916 
Q 2375 1106 2209 1216 
Q 2094 1291 1634 1406 
Q 1016 1563 777 1677 
Q 538 1791 414 1992 
Q 291 2194 291 2438 
Q 291 2659 392 2848 
Q 494 3038 669 3163 
Q 800 3259 1026 3326 
Q 1253 3394 1513 3394 
Q 1903 3394 2198 3281 
Q 2494 3169 2634 2976 
Q 2775 2784 2828 2463 
L 2278 2388 
Q 2241 2644 2061 2787 
Q 1881 2931 1553 2931 
Q 1166 2931 1000 2803 
Q 834 2675 834 2503 
Q 834 2394 903 2306 
Q 972 2216 1119 2156 
Q 1203 2125 1616 2013 
Q 2213 1853 2448 1751 
Q 2684 1650 2818 1456 
Q 2953 1263 2953 975 
Q 2953 694 2789 445 
Q 2625 197 2315 61 
Q 2006 -75 1616 -75 
Q 969 -75 630 194 
Q 291 463 197 991 
z
" transform="scale(0.015625)"/>
        <path id="ArialMT-74" d="M 1650 503 
L 1731 6 
Q 1494 -44 1306 -44 
Q 1000 -44 831 53 
Q 663 150 594 308 
Q 525 466 525 972 
L 525 2881 
L 113 2881 
L 113 3319 
L 525 3319 
L 525 4141 
L 1084 4478 
L 1084 3319 
L 1650 3319 
L 1650 2881 
L 1084 2881 
L 1084 941 
Q 1084 700 1114 631 
Q 1144 563 1211 522 
Q 1278 481 1403 481 
Q 1497 481 1650 503 
z
" transform="scale(0.015625)"/>
        <path id="ArialMT-61" d="M 2588 409 
Q 2275 144 1986 34 
Q 1697 -75 1366 -75 
Q 819 -75 525 192 
Q 231 459 231 875 
Q 231 1119 342 1320 
Q 453 1522 633 1644 
Q 813 1766 1038 1828 
Q 1203 1872 1538 1913 
Q 2219 1994 2541 2106 
Q 2544 2222 2544 2253 
Q 2544 2597 2384 2738 
Q 2169 2928 1744 2928 
Q 1347 2928 1158 2789 
Q 969 2650 878 2297 
L 328 2372 
Q 403 2725 575 2942 
Q 747 3159 1072 3276 
Q 1397 3394 1825 3394 
Q 2250 3394 2515 3294 
Q 2781 3194 2906 3042 
Q 3031 2891 3081 2659 
Q 3109 2516 3109 2141 
L 3109 1391 
Q 3109 606 3145 398 
Q 3181 191 3288 0 
L 2700 0 
Q 2613 175 2588 409 
z
M 2541 1666 
Q 2234 1541 1622 1453 
Q 1275 1403 1131 1340 
Q 988 1278 909 1158 
Q 831 1038 831 891 
Q 831 666 1001 516 
Q 1172 366 1500 366 
Q 1825 366 2078 508 
Q 2331 650 2450 897 
Q 2541 1088 2541 1459 
L 2541 1666 
z
" transform="scale(0.015625)"/>
        <path id="ArialMT-6e" d="M 422 0 
L 422 3319 
L 928 3319 
L 928 2847 
Q 1294 3394 1984 3394 
Q 2284 3394 2536 3286 
Q 2788 3178 2913 3003 
Q 3038 2828 3088 2588 
Q 3119 2431 3119 2041 
L 3119 0 
L 2556 0 
L 2556 2019 
Q 2556 2363 2490 2533 
Q 2425 2703 2258 2804 
Q 2091 2906 1866 2906 
Q 1506 2906 1245 2678 
Q 984 2450 984 1813 
L 984 0 
L 422 0 
z
" transform="scale(0.015625)"/>
        <path id="ArialMT-63" d="M 2588 1216 
L 3141 1144 
Q 3050 572 2676 248 
Q 2303 -75 1759 -75 
Q 1078 -75 664 370 
Q 250 816 250 1647 
Q 250 2184 428 2587 
Q 606 2991 970 3192 
Q 1334 3394 1763 3394 
Q 2303 3394 2647 3120 
Q 2991 2847 3088 2344 
L 2541 2259 
Q 2463 2594 2264 2762 
Q 2066 2931 1784 2931 
Q 1359 2931 1093 2626 
Q 828 2322 828 1663 
Q 828 994 1084 691 
Q 1341 388 1753 388 
Q 2084 388 2306 591 
Q 2528 794 2588 1216 
z
" transform="scale(0.015625)"/>
        <path id="ArialMT-65" d="M 2694 1069 
L 3275 997 
Q 3138 488 2766 206 
Q 2394 -75 1816 -75 
Q 1088 -75 661 373 
Q 234 822 234 1631 
Q 234 2469 665 2931 
Q 1097 3394 1784 3394 
Q 2450 3394 2872 2941 
Q 3294 2488 3294 1666 
Q 3294 1616 3291 1516 
L 816 1516 
Q 847 969 1125 678 
Q 1403 388 1819 388 
Q 2128 388 2347 550 
Q 2566 713 2694 1069 
z
M 847 1978 
L 2700 1978 
Q 2663 2397 2488 2606 
Q 2219 2931 1791 2931 
Q 1403 2931 1139 2672 
Q 875 2413 847 1978 
z
" transform="scale(0.015625)"/>
        <path id="ArialMT-29" d="M 791 -1347 
L 388 -1347 
Q 1322 153 1322 1656 
Q 1322 2244 1188 2822 
Q 1081 3291 891 3722 
Q 769 4003 388 4659 
L 791 4659 
Q 1378 3875 1659 3084 
Q 1900 2403 1900 1659 
Q 1900 816 1576 28 
Q 1253 -759 791 -1347 
z
" transform="scale(0.015625)"/>
       </defs>
       <use xlink:href="#ArialMT-42"/>
       <use xlink:href="#ArialMT-46" x="66.699219"/>
       <use xlink:href="#ArialMT-53" x="127.783203"/>
       <use xlink:href="#ArialMT-20" x="194.482422"/>
       <use xlink:href="#ArialMT-28" x="222.265625"/>
       <use xlink:href="#ArialMT-44" x="255.566406"/>
       <use xlink:href="#ArialMT-69" x="327.783203"/>
       <use xlink:href="#ArialMT-73" x="350"/>
       <use xlink:href="#ArialMT-74" x="400"/>
       <use xlink:href="#ArialMT-61" x="427.783203"/>
       <use xlink:href="#ArialMT-6e" x="483.398438"/>
       <use xlink:href="#ArialMT-63" x="539.013672"/>
       <use xlink:href="#ArialMT-65" x="589.013672"/>
       <use xlink:href="#ArialMT-29" x="644.628906"/>
      </g>
     </g>
    </g>
    <g id="xtick_2">
     <g id="text_2">
      <!-- Dijkstra -->
      <g style="fill: #262626" transform="translate(107.050278 236.334375) rotate(-90) scale(0.1 -0.1)">
       <defs>
        <path id="ArialMT-6a" d="M 419 3928 
L 419 4581 
L 981 4581 
L 981 3928 
L 419 3928 
z
M -294 -1288 
L -188 -809 
Q -19 -853 78 -853 
Q 250 -853 334 -739 
Q 419 -625 419 -169 
L 419 3319 
L 981 3319 
L 981 -181 
Q 981 -794 822 -1034 
Q 619 -1347 147 -1347 
Q -81 -1347 -294 -1288 
z
" transform="scale(0.015625)"/>
        <path id="ArialMT-6b" d="M 425 0 
L 425 4581 
L 988 4581 
L 988 1969 
L 2319 3319 
L 3047 3319 
L 1778 2088 
L 3175 0 
L 2481 0 
L 1384 1697 
L 988 1316 
L 988 0 
L 425 0 
z
" transform="scale(0.015625)"/>
        <path id="ArialMT-72" d="M 416 0 
L 416 3319 
L 922 3319 
L 922 2816 
Q 1116 3169 1280 3281 
Q 1444 3394 1641 3394 
Q 1925 3394 2219 3213 
L 2025 2691 
Q 1819 2813 1613 2813 
Q 1428 2813 1281 2702 
Q 1134 2591 1072 2394 
Q 978 2094 978 1738 
L 978 0 
L 416 0 
z
" transform="scale(0.015625)"/>
       </defs>
       <use xlink:href="#ArialMT-44"/>
       <use xlink:href="#ArialMT-69" x="72.216797"/>
       <use xlink:href="#ArialMT-6a" x="94.433594"/>
       <use xlink:href="#ArialMT-6b" x="116.650391"/>
       <use xlink:href="#ArialMT-73" x="166.650391"/>
       <use xlink:href="#ArialMT-74" x="216.650391"/>
       <use xlink:href="#ArialMT-72" x="244.433594"/>
       <use xlink:href="#ArialMT-61" x="277.734375"/>
      </g>
     </g>
    </g>
    <g id="xtick_3">
     <g id="text_3">
      <!-- FloodFill (Distance) -->
      <g style="fill: #262626" transform="translate(140.013719 289.128125) rotate(-90) scale(0.1 -0.1)">
       <defs>
        <path id="ArialMT-6c" d="M 409 0 
L 409 4581 
L 972 4581 
L 972 0 
L 409 0 
z
" transform="scale(0.015625)"/>
        <path id="ArialMT-6f" d="M 213 1659 
Q 213 2581 725 3025 
Q 1153 3394 1769 3394 
Q 2453 3394 2887 2945 
Q 3322 2497 3322 1706 
Q 3322 1066 3130 698 
Q 2938 331 2570 128 
Q 2203 -75 1769 -75 
Q 1072 -75 642 372 
Q 213 819 213 1659 
z
M 791 1659 
Q 791 1022 1069 705 
Q 1347 388 1769 388 
Q 2188 388 2466 706 
Q 2744 1025 2744 1678 
Q 2744 2294 2464 2611 
Q 2184 2928 1769 2928 
Q 1347 2928 1069 2612 
Q 791 2297 791 1659 
z
" transform="scale(0.015625)"/>
        <path id="ArialMT-64" d="M 2575 0 
L 2575 419 
Q 2259 -75 1647 -75 
Q 1250 -75 917 144 
Q 584 363 401 755 
Q 219 1147 219 1656 
Q 219 2153 384 2558 
Q 550 2963 881 3178 
Q 1213 3394 1622 3394 
Q 1922 3394 2156 3267 
Q 2391 3141 2538 2938 
L 2538 4581 
L 3097 4581 
L 3097 0 
L 2575 0 
z
M 797 1656 
Q 797 1019 1065 703 
Q 1334 388 1700 388 
Q 2069 388 2326 689 
Q 2584 991 2584 1609 
Q 2584 2291 2321 2609 
Q 2059 2928 1675 2928 
Q 1300 2928 1048 2622 
Q 797 2316 797 1656 
z
" transform="scale(0.015625)"/>
       </defs>
       <use xlink:href="#ArialMT-46"/>
       <use xlink:href="#ArialMT-6c" x="61.083984"/>
       <use xlink:href="#ArialMT-6f" x="83.300781"/>
       <use xlink:href="#ArialMT-6f" x="138.916016"/>
       <use xlink:href="#ArialMT-64" x="194.53125"/>
       <use xlink:href="#ArialMT-46" x="250.146484"/>
       <use xlink:href="#ArialMT-69" x="311.230469"/>
       <use xlink:href="#ArialMT-6c" x="333.447266"/>
       <use xlink:href="#ArialMT-6c" x="355.664062"/>
       <use xlink:href="#ArialMT-20" x="377.880859"/>
       <use xlink:href="#ArialMT-28" x="405.664062"/>
       <use xlink:href="#ArialMT-44" x="438.964844"/>
       <use xlink:href="#ArialMT-69" x="511.181641"/>
       <use xlink:href="#ArialMT-73" x="533.398438"/>
       <use xlink:href="#ArialMT-74" x="583.398438"/>
       <use xlink:href="#ArialMT-61" x="611.181641"/>
       <use xlink:href="#ArialMT-6e" x="666.796875"/>
       <use xlink:href="#ArialMT-63" x="722.412109"/>
       <use xlink:href="#ArialMT-65" x="772.412109"/>
       <use xlink:href="#ArialMT-29" x="828.027344"/>
      </g>
     </g>
    </g>
    <g id="xtick_4">
     <g id="text_4">
      <!-- A* -->
      <g style="fill: #262626" transform="translate(172.913879 213.5625) rotate(-90) scale(0.1 -0.1)">
       <defs>
        <path id="ArialMT-41" d="M -9 0 
L 1750 4581 
L 2403 4581 
L 4278 0 
L 3588 0 
L 3053 1388 
L 1138 1388 
L 634 0 
L -9 0 
z
M 1313 1881 
L 2866 1881 
L 2388 3150 
Q 2169 3728 2063 4100 
Q 1975 3659 1816 3225 
L 1313 1881 
z
" transform="scale(0.015625)"/>
        <path id="ArialMT-2a" d="M 200 3741 
L 344 4184 
Q 841 4009 1066 3881 
Q 1006 4447 1003 4659 
L 1456 4659 
Q 1447 4350 1384 3884 
Q 1706 4047 2122 4184 
L 2266 3741 
Q 1869 3609 1488 3566 
Q 1678 3400 2025 2975 
L 1650 2709 
Q 1469 2956 1222 3381 
Q 991 2941 816 2709 
L 447 2975 
Q 809 3422 966 3566 
Q 563 3644 200 3741 
z
" transform="scale(0.015625)"/>
       </defs>
       <use xlink:href="#ArialMT-41"/>
       <use xlink:href="#ArialMT-2a" x="66.699219"/>
      </g>
     </g>
    </g>
    <g id="xtick_5">
     <g id="text_5">
      <!-- BFS (Time) -->
      <g style="fill: #262626" transform="translate(205.818726 253.73125) rotate(-90) scale(0.1 -0.1)">
       <defs>
        <path id="ArialMT-54" d="M 1659 0 
L 1659 4041 
L 150 4041 
L 150 4581 
L 3781 4581 
L 3781 4041 
L 2266 4041 
L 2266 0 
L 1659 0 
z
" transform="scale(0.015625)"/>
        <path id="ArialMT-6d" d="M 422 0 
L 422 3319 
L 925 3319 
L 925 2853 
Q 1081 3097 1340 3245 
Q 1600 3394 1931 3394 
Q 2300 3394 2536 3241 
Q 2772 3088 2869 2813 
Q 3263 3394 3894 3394 
Q 4388 3394 4653 3120 
Q 4919 2847 4919 2278 
L 4919 0 
L 4359 0 
L 4359 2091 
Q 4359 2428 4304 2576 
Q 4250 2725 4106 2815 
Q 3963 2906 3769 2906 
Q 3419 2906 3187 2673 
Q 2956 2441 2956 1928 
L 2956 0 
L 2394 0 
L 2394 2156 
Q 2394 2531 2256 2718 
Q 2119 2906 1806 2906 
Q 1569 2906 1367 2781 
Q 1166 2656 1075 2415 
Q 984 2175 984 1722 
L 984 0 
L 422 0 
z
" transform="scale(0.015625)"/>
       </defs>
       <use xlink:href="#ArialMT-42"/>
       <use xlink:href="#ArialMT-46" x="66.699219"/>
       <use xlink:href="#ArialMT-53" x="127.783203"/>
       <use xlink:href="#ArialMT-20" x="194.482422"/>
       <use xlink:href="#ArialMT-28" x="222.265625"/>
       <use xlink:href="#ArialMT-54" x="255.566406"/>
       <use xlink:href="#ArialMT-69" x="312.900391"/>
       <use xlink:href="#ArialMT-6d" x="335.117188"/>
       <use xlink:href="#ArialMT-65" x="418.417969"/>
       <use xlink:href="#ArialMT-29" x="474.033203"/>
      </g>
     </g>
    </g>
    <g id="xtick_6">
     <g id="text_6">
      <!-- FloodFill (Time) -->
      <g style="fill: #262626" transform="translate(238.721229 272.06875) rotate(-90) scale(0.1 -0.1)">
       <use xlink:href="#ArialMT-46"/>
       <use xlink:href="#ArialMT-6c" x="61.083984"/>
       <use xlink:href="#ArialMT-6f" x="83.300781"/>
       <use xlink:href="#ArialMT-6f" x="138.916016"/>
       <use xlink:href="#ArialMT-64" x="194.53125"/>
       <use xlink:href="#ArialMT-46" x="250.146484"/>
       <use xlink:href="#ArialMT-69" x="311.230469"/>
       <use xlink:href="#ArialMT-6c" x="333.447266"/>
       <use xlink:href="#ArialMT-6c" x="355.664062"/>
       <use xlink:href="#ArialMT-20" x="377.880859"/>
       <use xlink:href="#ArialMT-28" x="405.664062"/>
       <use xlink:href="#ArialMT-54" x="438.964844"/>
       <use xlink:href="#ArialMT-69" x="496.298828"/>
       <use xlink:href="#ArialMT-6d" x="518.515625"/>
       <use xlink:href="#ArialMT-65" x="601.816406"/>
       <use xlink:href="#ArialMT-29" x="657.431641"/>
      </g>
     </g>
    </g>
    <g id="xtick_7">
     <g id="text_7">
      <!-- Q-learning -->
      <g style="fill: #262626" transform="translate(271.626857 249.685937) rotate(-90) scale(0.1 -0.1)">
       <defs>
        <path id="ArialMT-51" d="M 3966 491 
Q 4388 200 4744 66 
L 4566 -356 
Q 4072 -178 3581 206 
Q 3072 -78 2456 -78 
Q 1834 -78 1328 222 
Q 822 522 548 1065 
Q 275 1609 275 2291 
Q 275 2969 550 3525 
Q 825 4081 1333 4372 
Q 1841 4663 2469 4663 
Q 3103 4663 3612 4361 
Q 4122 4059 4389 3517 
Q 4656 2975 4656 2294 
Q 4656 1728 4484 1276 
Q 4313 825 3966 491 
z
M 2631 1266 
Q 3156 1119 3497 828 
Q 4031 1316 4031 2294 
Q 4031 2850 3842 3265 
Q 3653 3681 3289 3911 
Q 2925 4141 2472 4141 
Q 1794 4141 1347 3677 
Q 900 3213 900 2291 
Q 900 1397 1342 919 
Q 1784 441 2472 441 
Q 2797 441 3084 563 
Q 2800 747 2484 825 
L 2631 1266 
z
" transform="scale(0.015625)"/>
        <path id="ArialMT-2d" d="M 203 1375 
L 203 1941 
L 1931 1941 
L 1931 1375 
L 203 1375 
z
" transform="scale(0.015625)"/>
        <path id="ArialMT-67" d="M 319 -275 
L 866 -356 
Q 900 -609 1056 -725 
Q 1266 -881 1628 -881 
Q 2019 -881 2231 -725 
Q 2444 -569 2519 -288 
Q 2563 -116 2559 434 
Q 2191 0 1641 0 
Q 956 0 581 494 
Q 206 988 206 1678 
Q 206 2153 378 2554 
Q 550 2956 876 3175 
Q 1203 3394 1644 3394 
Q 2231 3394 2613 2919 
L 2613 3319 
L 3131 3319 
L 3131 450 
Q 3131 -325 2973 -648 
Q 2816 -972 2473 -1159 
Q 2131 -1347 1631 -1347 
Q 1038 -1347 672 -1080 
Q 306 -813 319 -275 
z
M 784 1719 
Q 784 1066 1043 766 
Q 1303 466 1694 466 
Q 2081 466 2343 764 
Q 2606 1063 2606 1700 
Q 2606 2309 2336 2618 
Q 2066 2928 1684 2928 
Q 1309 2928 1046 2623 
Q 784 2319 784 1719 
z
" transform="scale(0.015625)"/>
       </defs>
       <use xlink:href="#ArialMT-51"/>
       <use xlink:href="#ArialMT-2d" x="77.783203"/>
       <use xlink:href="#ArialMT-6c" x="111.083984"/>
       <use xlink:href="#ArialMT-65" x="133.300781"/>
       <use xlink:href="#ArialMT-61" x="188.916016"/>
       <use xlink:href="#ArialMT-72" x="244.53125"/>
       <use xlink:href="#ArialMT-6e" x="277.832031"/>
       <use xlink:href="#ArialMT-69" x="333.447266"/>
       <use xlink:href="#ArialMT-6e" x="355.664062"/>
       <use xlink:href="#ArialMT-67" x="411.279297"/>
      </g>
     </g>
    </g>
    <g id="xtick_8">
     <g id="text_8">
      <!-- Dyna-Q (QL) Static -->
      <g style="fill: #262626" transform="translate(304.52936 288.015625) rotate(-90) scale(0.1 -0.1)">
       <defs>
        <path id="ArialMT-79" d="M 397 -1278 
L 334 -750 
Q 519 -800 656 -800 
Q 844 -800 956 -737 
Q 1069 -675 1141 -563 
Q 1194 -478 1313 -144 
Q 1328 -97 1363 -6 
L 103 3319 
L 709 3319 
L 1400 1397 
Q 1534 1031 1641 628 
Q 1738 1016 1872 1384 
L 2581 3319 
L 3144 3319 
L 1881 -56 
Q 1678 -603 1566 -809 
Q 1416 -1088 1222 -1217 
Q 1028 -1347 759 -1347 
Q 597 -1347 397 -1278 
z
" transform="scale(0.015625)"/>
        <path id="ArialMT-4c" d="M 469 0 
L 469 4581 
L 1075 4581 
L 1075 541 
L 3331 541 
L 3331 0 
L 469 0 
z
" transform="scale(0.015625)"/>
       </defs>
       <use xlink:href="#ArialMT-44"/>
       <use xlink:href="#ArialMT-79" x="72.216797"/>
       <use xlink:href="#ArialMT-6e" x="122.216797"/>
       <use xlink:href="#ArialMT-61" x="177.832031"/>
       <use xlink:href="#ArialMT-2d" x="233.447266"/>
       <use xlink:href="#ArialMT-51" x="266.748047"/>
       <use xlink:href="#ArialMT-20" x="344.53125"/>
       <use xlink:href="#ArialMT-28" x="372.314453"/>
       <use xlink:href="#ArialMT-51" x="405.615234"/>
       <use xlink:href="#ArialMT-4c" x="483.398438"/>
       <use xlink:href="#ArialMT-29" x="539.013672"/>
       <use xlink:href="#ArialMT-20" x="572.314453"/>
       <use xlink:href="#ArialMT-53" x="600.097656"/>
       <use xlink:href="#ArialMT-74" x="666.796875"/>
       <use xlink:href="#ArialMT-61" x="694.580078"/>
       <use xlink:href="#ArialMT-74" x="750.195312"/>
       <use xlink:href="#ArialMT-69" x="777.978516"/>
       <use xlink:href="#ArialMT-63" x="800.195312"/>
      </g>
     </g>
    </g>
    <g id="xtick_9">
     <g id="text_9">
      <!-- Dyna-Q (Hybrid) Static -->
      <g style="fill: #262626" transform="translate(337.431864 303.571875) rotate(-90) scale(0.1 -0.1)">
       <defs>
        <path id="ArialMT-48" d="M 513 0 
L 513 4581 
L 1119 4581 
L 1119 2700 
L 3500 2700 
L 3500 4581 
L 4106 4581 
L 4106 0 
L 3500 0 
L 3500 2159 
L 1119 2159 
L 1119 0 
L 513 0 
z
" transform="scale(0.015625)"/>
        <path id="ArialMT-62" d="M 941 0 
L 419 0 
L 419 4581 
L 981 4581 
L 981 2947 
Q 1338 3394 1891 3394 
Q 2197 3394 2470 3270 
Q 2744 3147 2920 2923 
Q 3097 2700 3197 2384 
Q 3297 2069 3297 1709 
Q 3297 856 2875 390 
Q 2453 -75 1863 -75 
Q 1275 -75 941 416 
L 941 0 
z
M 934 1684 
Q 934 1088 1097 822 
Q 1363 388 1816 388 
Q 2184 388 2453 708 
Q 2722 1028 2722 1663 
Q 2722 2313 2464 2622 
Q 2206 2931 1841 2931 
Q 1472 2931 1203 2611 
Q 934 2291 934 1684 
z
" transform="scale(0.015625)"/>
       </defs>
       <use xlink:href="#ArialMT-44"/>
       <use xlink:href="#ArialMT-79" x="72.216797"/>
       <use xlink:href="#ArialMT-6e" x="122.216797"/>
       <use xlink:href="#ArialMT-61" x="177.832031"/>
       <use xlink:href="#ArialMT-2d" x="233.447266"/>
       <use xlink:href="#ArialMT-51" x="266.748047"/>
       <use xlink:href="#ArialMT-20" x="344.53125"/>
       <use xlink:href="#ArialMT-28" x="372.314453"/>
       <use xlink:href="#ArialMT-48" x="405.615234"/>
       <use xlink:href="#ArialMT-79" x="477.832031"/>
       <use xlink:href="#ArialMT-62" x="527.832031"/>
       <use xlink:href="#ArialMT-72" x="583.447266"/>
       <use xlink:href="#ArialMT-69" x="616.748047"/>
       <use xlink:href="#ArialMT-64" x="638.964844"/>
       <use xlink:href="#ArialMT-29" x="694.580078"/>
       <use xlink:href="#ArialMT-20" x="727.880859"/>
       <use xlink:href="#ArialMT-53" x="755.664062"/>
       <use xlink:href="#ArialMT-74" x="822.363281"/>
       <use xlink:href="#ArialMT-61" x="850.146484"/>
       <use xlink:href="#ArialMT-74" x="905.761719"/>
       <use xlink:href="#ArialMT-69" x="933.544922"/>
       <use xlink:href="#ArialMT-63" x="955.761719"/>
      </g>
     </g>
    </g>
    <g id="xtick_10">
     <g id="text_10">
      <!-- Dyna-Q (QL) Dynamic -->
      <g style="fill: #262626" transform="translate(370.334367 301.901563) rotate(-90) scale(0.1 -0.1)">
       <use xlink:href="#ArialMT-44"/>
       <use xlink:href="#ArialMT-79" x="72.216797"/>
       <use xlink:href="#ArialMT-6e" x="122.216797"/>
       <use xlink:href="#ArialMT-61" x="177.832031"/>
       <use xlink:href="#ArialMT-2d" x="233.447266"/>
       <use xlink:href="#ArialMT-51" x="266.748047"/>
       <use xlink:href="#ArialMT-20" x="344.53125"/>
       <use xlink:href="#ArialMT-28" x="372.314453"/>
       <use xlink:href="#ArialMT-51" x="405.615234"/>
       <use xlink:href="#ArialMT-4c" x="483.398438"/>
       <use xlink:href="#ArialMT-29" x="539.013672"/>
       <use xlink:href="#ArialMT-20" x="572.314453"/>
       <use xlink:href="#ArialMT-44" x="600.097656"/>
       <use xlink:href="#ArialMT-79" x="672.314453"/>
       <use xlink:href="#ArialMT-6e" x="722.314453"/>
       <use xlink:href="#ArialMT-61" x="777.929688"/>
       <use xlink:href="#ArialMT-6d" x="833.544922"/>
       <use xlink:href="#ArialMT-69" x="916.845703"/>
       <use xlink:href="#ArialMT-63" x="939.0625"/>
      </g>
     </g>
    </g>
    <g id="xtick_11">
     <g id="text_11">
      <!-- Dyna-Q (Hybrid) Dynamic -->
      <g style="fill: #262626" transform="translate(403.23687 317.457812) rotate(-90) scale(0.1 -0.1)">
       <use xlink:href="#ArialMT-44"/>
       <use xlink:href="#ArialMT-79" x="72.216797"/>
       <use xlink:href="#ArialMT-6e" x="122.216797"/>
       <use xlink:href="#ArialMT-61" x="177.832031"/>
       <use xlink:href="#ArialMT-2d" x="233.447266"/>
       <use xlink:href="#ArialMT-51" x="266.748047"/>
       <use xlink:href="#ArialMT-20" x="344.53125"/>
       <use xlink:href="#ArialMT-28" x="372.314453"/>
       <use xlink:href="#ArialMT-48" x="405.615234"/>
       <use xlink:href="#ArialMT-79" x="477.832031"/>
       <use xlink:href="#ArialMT-62" x="527.832031"/>
       <use xlink:href="#ArialMT-72" x="583.447266"/>
       <use xlink:href="#ArialMT-69" x="616.748047"/>
       <use xlink:href="#ArialMT-64" x="638.964844"/>
       <use xlink:href="#ArialMT-29" x="694.580078"/>
       <use xlink:href="#ArialMT-20" x="727.880859"/>
       <use xlink:href="#ArialMT-44" x="755.664062"/>
       <use xlink:href="#ArialMT-79" x="827.880859"/>
       <use xlink:href="#ArialMT-6e" x="877.880859"/>
       <use xlink:href="#ArialMT-61" x="933.496094"/>
       <use xlink:href="#ArialMT-6d" x="989.111328"/>
       <use xlink:href="#ArialMT-69" x="1072.412109"/>
       <use xlink:href="#ArialMT-63" x="1094.628906"/>
      </g>
     </g>
    </g>
    <g id="xtick_12">
     <g id="text_12">
      <!-- SARSA -->
      <g style="fill: #262626" transform="translate(436.133905 236.903125) rotate(-90) scale(0.1 -0.1)">
       <defs>
        <path id="ArialMT-52" d="M 503 0 
L 503 4581 
L 2534 4581 
Q 3147 4581 3465 4457 
Q 3784 4334 3975 4021 
Q 4166 3709 4166 3331 
Q 4166 2844 3850 2509 
Q 3534 2175 2875 2084 
Q 3116 1969 3241 1856 
Q 3506 1613 3744 1247 
L 4541 0 
L 3778 0 
L 3172 953 
Q 2906 1366 2734 1584 
Q 2563 1803 2427 1890 
Q 2291 1978 2150 2013 
Q 2047 2034 1813 2034 
L 1109 2034 
L 1109 0 
L 503 0 
z
M 1109 2559 
L 2413 2559 
Q 2828 2559 3062 2645 
Q 3297 2731 3419 2920 
Q 3541 3109 3541 3331 
Q 3541 3656 3305 3865 
Q 3069 4075 2559 4075 
L 1109 4075 
L 1109 2559 
z
" transform="scale(0.015625)"/>
       </defs>
       <use xlink:href="#ArialMT-53"/>
       <use xlink:href="#ArialMT-41" x="66.699219"/>
       <use xlink:href="#ArialMT-52" x="133.398438"/>
       <use xlink:href="#ArialMT-53" x="205.615234"/>
       <use xlink:href="#ArialMT-41" x="272.314453"/>
      </g>
     </g>
    </g>
    <g id="text_13">
     <!-- Algorithm -->
     <g style="fill: #262626" transform="translate(223.020918 331.47875) scale(0.14 -0.14)">
      <defs>
       <path id="ArialMT-68" d="M 422 0 
L 422 4581 
L 984 4581 
L 984 2938 
Q 1378 3394 1978 3394 
Q 2347 3394 2619 3248 
Q 2891 3103 3008 2847 
Q 3125 2591 3125 2103 
L 3125 0 
L 2563 0 
L 2563 2103 
Q 2563 2525 2380 2717 
Q 2197 2909 1863 2909 
Q 1613 2909 1392 2779 
Q 1172 2650 1078 2428 
Q 984 2206 984 1816 
L 984 0 
L 422 0 
z
" transform="scale(0.015625)"/>
      </defs>
      <use xlink:href="#ArialMT-41"/>
      <use xlink:href="#ArialMT-6c" x="66.699219"/>
      <use xlink:href="#ArialMT-67" x="88.916016"/>
      <use xlink:href="#ArialMT-6f" x="144.53125"/>
      <use xlink:href="#ArialMT-72" x="200.146484"/>
      <use xlink:href="#ArialMT-69" x="233.447266"/>
      <use xlink:href="#ArialMT-74" x="255.664062"/>
      <use xlink:href="#ArialMT-68" x="283.447266"/>
      <use xlink:href="#ArialMT-6d" x="339.0625"/>
     </g>
    </g>
   </g>
   <g id="matplotlib.axis_2">
    <g id="ytick_1">
     <g id="line2d_1">
      <path d="M 55.169961 183.518557 
L 450 183.518557 
" clip-path="url(#p5396c13f30)" style="fill: none; stroke: #ffffff; stroke-width: 0.8; stroke-linecap: round"/>
     </g>
     <g id="text_14">
      <!-- $\mathdefault{10^{-4}}$ -->
      <g style="fill: #262626" transform="translate(28.369961 188.624807) scale(0.1 -0.1)">
       <defs>
        <path id="ArialMT-31" d="M 2384 0 
L 1822 0 
L 1822 3584 
Q 1619 3391 1289 3197 
Q 959 3003 697 2906 
L 697 3450 
Q 1169 3672 1522 3987 
Q 1875 4303 2022 4600 
L 2384 4600 
L 2384 0 
z
" transform="scale(0.015625)"/>
        <path id="ArialMT-30" d="M 266 2259 
Q 266 3072 433 3567 
Q 600 4063 929 4331 
Q 1259 4600 1759 4600 
Q 2128 4600 2406 4451 
Q 2684 4303 2865 4023 
Q 3047 3744 3150 3342 
Q 3253 2941 3253 2259 
Q 3253 1453 3087 958 
Q 2922 463 2592 192 
Q 2263 -78 1759 -78 
Q 1097 -78 719 397 
Q 266 969 266 2259 
z
M 844 2259 
Q 844 1131 1108 757 
Q 1372 384 1759 384 
Q 2147 384 2411 759 
Q 2675 1134 2675 2259 
Q 2675 3391 2411 3762 
Q 2147 4134 1753 4134 
Q 1366 4134 1134 3806 
Q 844 3388 844 2259 
z
" transform="scale(0.015625)"/>
        <path id="ArialMT-2212" d="M 3381 1997 
L 356 1997 
L 356 2522 
L 3381 2522 
L 3381 1997 
z
" transform="scale(0.015625)"/>
        <path id="ArialMT-34" d="M 2069 0 
L 2069 1097 
L 81 1097 
L 81 1613 
L 2172 4581 
L 2631 4581 
L 2631 1613 
L 3250 1613 
L 3250 1097 
L 2631 1097 
L 2631 0 
L 2069 0 
z
M 2069 1613 
L 2069 3678 
L 634 1613 
L 2069 1613 
z
" transform="scale(0.015625)"/>
       </defs>
       <use xlink:href="#ArialMT-31" transform="translate(0 0.201563)"/>
       <use xlink:href="#ArialMT-30" transform="translate(55.615234 0.201563)"/>
       <use xlink:href="#ArialMT-2212" transform="translate(112.972813 69.895313) scale(0.7)"/>
       <use xlink:href="#ArialMT-34" transform="translate(153.851719 69.895313) scale(0.7)"/>
      </g>
     </g>
    </g>
    <g id="ytick_2">
     <g id="line2d_2">
      <path d="M 55.169961 154.336414 
L 450 154.336414 
" clip-path="url(#p5396c13f30)" style="fill: none; stroke: #ffffff; stroke-width: 0.8; stroke-linecap: round"/>
     </g>
     <g id="text_15">
      <!-- $\mathdefault{10^{-3}}$ -->
      <g style="fill: #262626" transform="translate(28.369961 159.492664) scale(0.1 -0.1)">
       <defs>
        <path id="ArialMT-33" d="M 269 1209 
L 831 1284 
Q 928 806 1161 595 
Q 1394 384 1728 384 
Q 2125 384 2398 659 
Q 2672 934 2672 1341 
Q 2672 1728 2419 1979 
Q 2166 2231 1775 2231 
Q 1616 2231 1378 2169 
L 1441 2663 
Q 1497 2656 1531 2656 
Q 1891 2656 2178 2843 
Q 2466 3031 2466 3422 
Q 2466 3731 2256 3934 
Q 2047 4138 1716 4138 
Q 1388 4138 1169 3931 
Q 950 3725 888 3313 
L 325 3413 
Q 428 3978 793 4289 
Q 1159 4600 1703 4600 
Q 2078 4600 2393 4439 
Q 2709 4278 2876 4000 
Q 3044 3722 3044 3409 
Q 3044 3113 2884 2869 
Q 2725 2625 2413 2481 
Q 2819 2388 3044 2092 
Q 3269 1797 3269 1353 
Q 3269 753 2831 336 
Q 2394 -81 1725 -81 
Q 1122 -81 723 278 
Q 325 638 269 1209 
z
" transform="scale(0.015625)"/>
       </defs>
       <use xlink:href="#ArialMT-31" transform="translate(0 0.99375)"/>
       <use xlink:href="#ArialMT-30" transform="translate(55.615234 0.99375)"/>
       <use xlink:href="#ArialMT-2212" transform="translate(112.972813 70.6875) scale(0.7)"/>
       <use xlink:href="#ArialMT-33" transform="translate(153.851719 70.6875) scale(0.7)"/>
      </g>
     </g>
    </g>
    <g id="ytick_3">
     <g id="line2d_3">
      <path d="M 55.169961 125.154271 
L 450 125.154271 
" clip-path="url(#p5396c13f30)" style="fill: none; stroke: #ffffff; stroke-width: 0.8; stroke-linecap: round"/>
     </g>
     <g id="text_16">
      <!-- $\mathdefault{10^{-2}}$ -->
      <g style="fill: #262626" transform="translate(28.369961 130.310521) scale(0.1 -0.1)">
       <defs>
        <path id="ArialMT-32" d="M 3222 541 
L 3222 0 
L 194 0 
Q 188 203 259 391 
Q 375 700 629 1000 
Q 884 1300 1366 1694 
Q 2113 2306 2375 2664 
Q 2638 3022 2638 3341 
Q 2638 3675 2398 3904 
Q 2159 4134 1775 4134 
Q 1369 4134 1125 3890 
Q 881 3647 878 3216 
L 300 3275 
Q 359 3922 746 4261 
Q 1134 4600 1788 4600 
Q 2447 4600 2831 4234 
Q 3216 3869 3216 3328 
Q 3216 3053 3103 2787 
Q 2991 2522 2730 2228 
Q 2469 1934 1863 1422 
Q 1356 997 1212 845 
Q 1069 694 975 541 
L 3222 541 
z
" transform="scale(0.015625)"/>
       </defs>
       <use xlink:href="#ArialMT-31" transform="translate(0 0.99375)"/>
       <use xlink:href="#ArialMT-30" transform="translate(55.615234 0.99375)"/>
       <use xlink:href="#ArialMT-2212" transform="translate(112.972813 70.6875) scale(0.7)"/>
       <use xlink:href="#ArialMT-32" transform="translate(153.851719 70.6875) scale(0.7)"/>
      </g>
     </g>
    </g>
    <g id="ytick_4">
     <g id="line2d_4">
      <path d="M 55.169961 95.972128 
L 450 95.972128 
" clip-path="url(#p5396c13f30)" style="fill: none; stroke: #ffffff; stroke-width: 0.8; stroke-linecap: round"/>
     </g>
     <g id="text_17">
      <!-- $\mathdefault{10^{-1}}$ -->
      <g style="fill: #262626" transform="translate(28.369961 101.128378) scale(0.1 -0.1)">
       <use xlink:href="#ArialMT-31" transform="translate(0 0.99375)"/>
       <use xlink:href="#ArialMT-30" transform="translate(55.615234 0.99375)"/>
       <use xlink:href="#ArialMT-2212" transform="translate(112.972813 70.6875) scale(0.7)"/>
       <use xlink:href="#ArialMT-31" transform="translate(153.851719 70.6875) scale(0.7)"/>
      </g>
     </g>
    </g>
    <g id="ytick_5">
     <g id="line2d_5">
      <path d="M 55.169961 66.789985 
L 450 66.789985 
" clip-path="url(#p5396c13f30)" style="fill: none; stroke: #ffffff; stroke-width: 0.8; stroke-linecap: round"/>
     </g>
     <g id="text_18">
      <!-- $\mathdefault{10^{0}}$ -->
      <g style="fill: #262626" transform="translate(32.469961 71.946235) scale(0.1 -0.1)">
       <use xlink:href="#ArialMT-31" transform="translate(0 0.99375)"/>
       <use xlink:href="#ArialMT-30" transform="translate(55.615234 0.99375)"/>
       <use xlink:href="#ArialMT-30" transform="translate(112.972813 70.6875) scale(0.7)"/>
      </g>
     </g>
    </g>
    <g id="ytick_6">
     <g id="line2d_6">
      <path d="M 55.169961 37.607842 
L 450 37.607842 
" clip-path="url(#p5396c13f30)" style="fill: none; stroke: #ffffff; stroke-width: 0.8; stroke-linecap: round"/>
     </g>
     <g id="text_19">
      <!-- $\mathdefault{10^{1}}$ -->
      <g style="fill: #262626" transform="translate(32.469961 42.764092) scale(0.1 -0.1)">
       <use xlink:href="#ArialMT-31" transform="translate(0 0.99375)"/>
       <use xlink:href="#ArialMT-30" transform="translate(55.615234 0.99375)"/>
       <use xlink:href="#ArialMT-31" transform="translate(112.972813 70.6875) scale(0.7)"/>
      </g>
     </g>
    </g>
    <g id="ytick_7"/>
    <g id="ytick_8"/>
    <g id="ytick_9"/>
    <g id="ytick_10"/>
    <g id="ytick_11"/>
    <g id="ytick_12"/>
    <g id="ytick_13"/>
    <g id="ytick_14"/>
    <g id="ytick_15"/>
    <g id="ytick_16"/>
    <g id="ytick_17"/>
    <g id="ytick_18"/>
    <g id="ytick_19"/>
    <g id="ytick_20"/>
    <g id="ytick_21"/>
    <g id="ytick_22"/>
    <g id="ytick_23"/>
    <g id="ytick_24"/>
    <g id="ytick_25"/>
    <g id="ytick_26"/>
    <g id="ytick_27"/>
    <g id="ytick_28"/>
    <g id="ytick_29"/>
    <g id="ytick_30"/>
    <g id="ytick_31"/>
    <g id="ytick_32"/>
    <g id="ytick_33"/>
    <g id="ytick_34"/>
    <g id="ytick_35"/>
    <g id="ytick_36"/>
    <g id="ytick_37"/>
    <g id="ytick_38"/>
    <g id="ytick_39"/>
    <g id="ytick_40"/>
    <g id="ytick_41"/>
    <g id="ytick_42"/>
    <g id="ytick_43"/>
    <g id="ytick_44"/>
    <g id="ytick_45"/>
    <g id="ytick_46"/>
    <g id="ytick_47"/>
    <g id="ytick_48"/>
    <g id="ytick_49"/>
    <g id="ytick_50"/>
    <g id="ytick_51"/>
    <g id="ytick_52"/>
    <g id="text_20">
     <!-- Execution Time (s) -->
     <g style="fill: #262626" transform="translate(21.423398 170.84) rotate(-90) scale(0.14 -0.14)">
      <defs>
       <path id="ArialMT-45" d="M 506 0 
L 506 4581 
L 3819 4581 
L 3819 4041 
L 1113 4041 
L 1113 2638 
L 3647 2638 
L 3647 2100 
L 1113 2100 
L 1113 541 
L 3925 541 
L 3925 0 
L 506 0 
z
" transform="scale(0.015625)"/>
       <path id="ArialMT-78" d="M 47 0 
L 1259 1725 
L 138 3319 
L 841 3319 
L 1350 2541 
Q 1494 2319 1581 2169 
Q 1719 2375 1834 2534 
L 2394 3319 
L 3066 3319 
L 1919 1756 
L 3153 0 
L 2463 0 
L 1781 1031 
L 1600 1309 
L 728 0 
L 47 0 
z
" transform="scale(0.015625)"/>
       <path id="ArialMT-75" d="M 2597 0 
L 2597 488 
Q 2209 -75 1544 -75 
Q 1250 -75 995 37 
Q 741 150 617 320 
Q 494 491 444 738 
Q 409 903 409 1263 
L 409 3319 
L 972 3319 
L 972 1478 
Q 972 1038 1006 884 
Q 1059 663 1231 536 
Q 1403 409 1656 409 
Q 1909 409 2131 539 
Q 2353 669 2445 892 
Q 2538 1116 2538 1541 
L 2538 3319 
L 3100 3319 
L 3100 0 
L 2597 0 
z
" transform="scale(0.015625)"/>
      </defs>
      <use xlink:href="#ArialMT-45"/>
      <use xlink:href="#ArialMT-78" x="66.699219"/>
      <use xlink:href="#ArialMT-65" x="116.699219"/>
      <use xlink:href="#ArialMT-63" x="172.314453"/>
      <use xlink:href="#ArialMT-75" x="222.314453"/>
      <use xlink:href="#ArialMT-74" x="277.929688"/>
      <use xlink:href="#ArialMT-69" x="305.712891"/>
      <use xlink:href="#ArialMT-6f" x="327.929688"/>
      <use xlink:href="#ArialMT-6e" x="383.544922"/>
      <use xlink:href="#ArialMT-20" x="439.160156"/>
      <use xlink:href="#ArialMT-54" x="465.193359"/>
      <use xlink:href="#ArialMT-69" x="522.527344"/>
      <use xlink:href="#ArialMT-6d" x="544.744141"/>
      <use xlink:href="#ArialMT-65" x="628.044922"/>
      <use xlink:href="#ArialMT-20" x="683.660156"/>
      <use xlink:href="#ArialMT-28" x="711.443359"/>
      <use xlink:href="#ArialMT-73" x="744.744141"/>
      <use xlink:href="#ArialMT-29" x="794.744141"/>
     </g>
    </g>
   </g>
   <g id="patch_3">
    <path d="M 58.460211 186.781719 
L 84.782214 186.781719 
L 84.782214 182.099255 
L 58.460211 182.099255 
L 58.460211 186.781719 
z
" clip-path="url(#p5396c13f30)" style="fill: #c9941d; stroke: #454545; stroke-linejoin: miter"/>
   </g>
   <g id="line2d_7">
    <path d="M 71.621213 186.781719 
L 71.621213 188.406306 
" clip-path="url(#p5396c13f30)" style="fill: none; stroke: #454545"/>
   </g>
   <g id="line2d_8">
    <path d="M 71.621213 182.099255 
L 71.621213 177.318695 
" clip-path="url(#p5396c13f30)" style="fill: none; stroke: #454545"/>
   </g>
   <g id="line2d_9">
    <path d="M 65.040712 188.406306 
L 78.201713 188.406306 
" clip-path="url(#p5396c13f30)" style="fill: none; stroke: #454545; stroke-linecap: round"/>
   </g>
   <g id="line2d_10">
    <path d="M 65.040712 177.318695 
L 78.201713 177.318695 
" clip-path="url(#p5396c13f30)" style="fill: none; stroke: #454545; stroke-linecap: round"/>
   </g>
   <g id="patch_4">
    <path d="M 91.362715 185.841916 
L 117.684717 185.841916 
L 117.684717 179.630928 
L 91.362715 179.630928 
L 91.362715 185.841916 
z
" clip-path="url(#p5396c13f30)" style="fill: #c9941d; stroke: #454545; stroke-linejoin: miter"/>
   </g>
   <g id="line2d_11">
    <path d="M 104.523716 185.841916 
L 104.523716 188.443636 
" clip-path="url(#p5396c13f30)" style="fill: none; stroke: #454545"/>
   </g>
   <g id="line2d_12">
    <path d="M 104.523716 179.630928 
L 104.523716 173.858621 
" clip-path="url(#p5396c13f30)" style="fill: none; stroke: #454545"/>
   </g>
   <g id="line2d_13">
    <path d="M 97.943215 188.443636 
L 111.104216 188.443636 
" clip-path="url(#p5396c13f30)" style="fill: none; stroke: #454545; stroke-linecap: round"/>
   </g>
   <g id="line2d_14">
    <path d="M 97.943215 173.858621 
L 111.104216 173.858621 
" clip-path="url(#p5396c13f30)" style="fill: none; stroke: #454545; stroke-linecap: round"/>
   </g>
   <g id="patch_5">
    <path d="M 124.265218 184.088838 
L 150.58722 184.088838 
L 150.58722 176.838373 
L 124.265218 176.838373 
L 124.265218 184.088838 
z
" clip-path="url(#p5396c13f30)" style="fill: #c9941d; stroke: #454545; stroke-linejoin: miter"/>
   </g>
   <g id="line2d_15">
    <path d="M 137.426219 184.088838 
L 137.426219 187.097124 
" clip-path="url(#p5396c13f30)" style="fill: none; stroke: #454545"/>
   </g>
   <g id="line2d_16">
    <path d="M 137.426219 176.838373 
L 137.426219 170.514872 
" clip-path="url(#p5396c13f30)" style="fill: none; stroke: #454545"/>
   </g>
   <g id="line2d_17">
    <path d="M 130.845718 187.097124 
L 144.00672 187.097124 
" clip-path="url(#p5396c13f30)" style="fill: none; stroke: #454545; stroke-linecap: round"/>
   </g>
   <g id="line2d_18">
    <path d="M 130.845718 170.514872 
L 144.00672 170.514872 
" clip-path="url(#p5396c13f30)" style="fill: none; stroke: #454545; stroke-linecap: round"/>
   </g>
   <g id="patch_6">
    <path d="M 157.167721 183.436445 
L 183.489724 183.436445 
L 183.489724 174.103443 
L 157.167721 174.103443 
L 157.167721 183.436445 
z
" clip-path="url(#p5396c13f30)" style="fill: #c9941d; stroke: #454545; stroke-linejoin: miter"/>
   </g>
   <g id="line2d_19">
    <path d="M 170.328722 183.436445 
L 170.328722 188.29497 
" clip-path="url(#p5396c13f30)" style="fill: none; stroke: #454545"/>
   </g>
   <g id="line2d_20">
    <path d="M 170.328722 174.103443 
L 170.328722 167.365688 
" clip-path="url(#p5396c13f30)" style="fill: none; stroke: #454545"/>
   </g>
   <g id="line2d_21">
    <path d="M 163.748222 188.29497 
L 176.909223 188.29497 
" clip-path="url(#p5396c13f30)" style="fill: none; stroke: #454545; stroke-linecap: round"/>
   </g>
   <g id="line2d_22">
    <path d="M 163.748222 167.365688 
L 176.909223 167.365688 
" clip-path="url(#p5396c13f30)" style="fill: none; stroke: #454545; stroke-linecap: round"/>
   </g>
   <g id="patch_7">
    <path d="M 190.070224 180.771887 
L 216.392227 180.771887 
L 216.392227 176.671148 
L 190.070224 176.671148 
L 190.070224 180.771887 
z
" clip-path="url(#p5396c13f30)" style="fill: #c9941d; stroke: #454545; stroke-linejoin: miter"/>
   </g>
   <g id="line2d_23">
    <path d="M 203.231226 180.771887 
L 203.231226 184.222105 
" clip-path="url(#p5396c13f30)" style="fill: none; stroke: #454545"/>
   </g>
   <g id="line2d_24">
    <path d="M 203.231226 176.671148 
L 203.231226 172.402073 
" clip-path="url(#p5396c13f30)" style="fill: none; stroke: #454545"/>
   </g>
   <g id="line2d_25">
    <path d="M 196.650725 184.222105 
L 209.811726 184.222105 
" clip-path="url(#p5396c13f30)" style="fill: none; stroke: #454545; stroke-linecap: round"/>
   </g>
   <g id="line2d_26">
    <path d="M 196.650725 172.402073 
L 209.811726 172.402073 
" clip-path="url(#p5396c13f30)" style="fill: none; stroke: #454545; stroke-linecap: round"/>
   </g>
   <g id="patch_8">
    <path d="M 222.972728 178.287236 
L 249.29473 178.287236 
L 249.29473 171.852697 
L 222.972728 171.852697 
L 222.972728 178.287236 
z
" clip-path="url(#p5396c13f30)" style="fill: #c9941d; stroke: #454545; stroke-linejoin: miter"/>
   </g>
   <g id="line2d_27">
    <path d="M 236.133729 178.287236 
L 236.133729 182.780078 
" clip-path="url(#p5396c13f30)" style="fill: none; stroke: #454545"/>
   </g>
   <g id="line2d_28">
    <path d="M 236.133729 171.852697 
L 236.133729 166.131055 
" clip-path="url(#p5396c13f30)" style="fill: none; stroke: #454545"/>
   </g>
   <g id="line2d_29">
    <path d="M 229.553228 182.780078 
L 242.714229 182.780078 
" clip-path="url(#p5396c13f30)" style="fill: none; stroke: #454545; stroke-linecap: round"/>
   </g>
   <g id="line2d_30">
    <path d="M 229.553228 166.131055 
L 242.714229 166.131055 
" clip-path="url(#p5396c13f30)" style="fill: none; stroke: #454545; stroke-linecap: round"/>
   </g>
   <g id="patch_9">
    <path d="M 255.875231 71.469595 
L 282.197233 71.469595 
L 282.197233 60.541724 
L 255.875231 60.541724 
L 255.875231 71.469595 
z
" clip-path="url(#p5396c13f30)" style="fill: #c9941d; stroke: #454545; stroke-linejoin: miter"/>
   </g>
   <g id="line2d_31">
    <path d="M 269.036232 71.469595 
L 269.036232 111.014302 
" clip-path="url(#p5396c13f30)" style="fill: none; stroke: #454545"/>
   </g>
   <g id="line2d_32">
    <path d="M 269.036232 60.541724 
L 269.036232 52.95454 
" clip-path="url(#p5396c13f30)" style="fill: none; stroke: #454545"/>
   </g>
   <g id="line2d_33">
    <path d="M 262.455731 111.014302 
L 275.616733 111.014302 
" clip-path="url(#p5396c13f30)" style="fill: none; stroke: #454545; stroke-linecap: round"/>
   </g>
   <g id="line2d_34">
    <path d="M 262.455731 52.95454 
L 275.616733 52.95454 
" clip-path="url(#p5396c13f30)" style="fill: none; stroke: #454545; stroke-linecap: round"/>
   </g>
   <g id="patch_10">
    <path d="M 288.777734 61.721215 
L 315.099737 61.721215 
L 315.099737 50.817901 
L 288.777734 50.817901 
L 288.777734 61.721215 
z
" clip-path="url(#p5396c13f30)" style="fill: #c9941d; stroke: #454545; stroke-linejoin: miter"/>
   </g>
   <g id="line2d_35">
    <path d="M 301.938735 61.721215 
L 301.938735 89.109931 
" clip-path="url(#p5396c13f30)" style="fill: none; stroke: #454545"/>
   </g>
   <g id="line2d_36">
    <path d="M 301.938735 50.817901 
L 301.938735 43.143284 
" clip-path="url(#p5396c13f30)" style="fill: none; stroke: #454545"/>
   </g>
   <g id="line2d_37">
    <path d="M 295.358235 89.109931 
L 308.519236 89.109931 
" clip-path="url(#p5396c13f30)" style="fill: none; stroke: #454545; stroke-linecap: round"/>
   </g>
   <g id="line2d_38">
    <path d="M 295.358235 43.143284 
L 308.519236 43.143284 
" clip-path="url(#p5396c13f30)" style="fill: none; stroke: #454545; stroke-linecap: round"/>
   </g>
   <g id="patch_11">
    <path d="M 321.680237 61.655341 
L 348.00224 61.655341 
L 348.00224 49.795494 
L 321.680237 49.795494 
L 321.680237 61.655341 
z
" clip-path="url(#p5396c13f30)" style="fill: #c9941d; stroke: #454545; stroke-linejoin: miter"/>
   </g>
   <g id="line2d_39">
    <path d="M 334.841239 61.655341 
L 334.841239 86.735522 
" clip-path="url(#p5396c13f30)" style="fill: none; stroke: #454545"/>
   </g>
   <g id="line2d_40">
    <path d="M 334.841239 49.795494 
L 334.841239 41.69221 
" clip-path="url(#p5396c13f30)" style="fill: none; stroke: #454545"/>
   </g>
   <g id="line2d_41">
    <path d="M 328.260738 86.735522 
L 341.421739 86.735522 
" clip-path="url(#p5396c13f30)" style="fill: none; stroke: #454545; stroke-linecap: round"/>
   </g>
   <g id="line2d_42">
    <path d="M 328.260738 41.69221 
L 341.421739 41.69221 
" clip-path="url(#p5396c13f30)" style="fill: none; stroke: #454545; stroke-linecap: round"/>
   </g>
   <g id="patch_12">
    <path d="M 354.582741 62.632461 
L 380.904743 62.632461 
L 380.904743 48.468906 
L 354.582741 48.468906 
L 354.582741 62.632461 
z
" clip-path="url(#p5396c13f30)" style="fill: #c9941d; stroke: #454545; stroke-linejoin: miter"/>
   </g>
   <g id="line2d_43">
    <path d="M 367.743742 62.632461 
L 367.743742 82.636623 
" clip-path="url(#p5396c13f30)" style="fill: none; stroke: #454545"/>
   </g>
   <g id="line2d_44">
    <path d="M 367.743742 48.468906 
L 367.743742 39.807602 
" clip-path="url(#p5396c13f30)" style="fill: none; stroke: #454545"/>
   </g>
   <g id="line2d_45">
    <path d="M 361.163241 82.636623 
L 374.324243 82.636623 
" clip-path="url(#p5396c13f30)" style="fill: none; stroke: #454545; stroke-linecap: round"/>
   </g>
   <g id="line2d_46">
    <path d="M 361.163241 39.807602 
L 374.324243 39.807602 
" clip-path="url(#p5396c13f30)" style="fill: none; stroke: #454545; stroke-linecap: round"/>
   </g>
   <g id="patch_13">
    <path d="M 387.485244 63.968888 
L 413.807246 63.968888 
L 413.807246 49.529582 
L 387.485244 49.529582 
L 387.485244 63.968888 
z
" clip-path="url(#p5396c13f30)" style="fill: #c9941d; stroke: #454545; stroke-linejoin: miter"/>
   </g>
   <g id="line2d_47">
    <path d="M 400.646245 63.968888 
L 400.646245 85.827212 
" clip-path="url(#p5396c13f30)" style="fill: none; stroke: #454545"/>
   </g>
   <g id="line2d_48">
    <path d="M 400.646245 49.529582 
L 400.646245 41.104032 
" clip-path="url(#p5396c13f30)" style="fill: none; stroke: #454545"/>
   </g>
   <g id="line2d_49">
    <path d="M 394.065744 85.827212 
L 407.226746 85.827212 
" clip-path="url(#p5396c13f30)" style="fill: none; stroke: #454545; stroke-linecap: round"/>
   </g>
   <g id="line2d_50">
    <path d="M 394.065744 41.104032 
L 407.226746 41.104032 
" clip-path="url(#p5396c13f30)" style="fill: none; stroke: #454545; stroke-linecap: round"/>
   </g>
   <g id="patch_14">
    <path d="M 420.387747 58.409868 
L 446.70975 58.409868 
L 446.70975 45.617745 
L 420.387747 45.617745 
L 420.387747 58.409868 
z
" clip-path="url(#p5396c13f30)" style="fill: #c9941d; stroke: #454545; stroke-linejoin: miter"/>
   </g>
   <g id="line2d_51">
    <path d="M 433.548748 58.409868 
L 433.548748 112.599994 
" clip-path="url(#p5396c13f30)" style="fill: none; stroke: #454545"/>
   </g>
   <g id="line2d_52">
    <path d="M 433.548748 45.617745 
L 433.548748 37.316364 
" clip-path="url(#p5396c13f30)" style="fill: none; stroke: #454545"/>
   </g>
   <g id="line2d_53">
    <path d="M 426.968248 112.599994 
L 440.129249 112.599994 
" clip-path="url(#p5396c13f30)" style="fill: none; stroke: #454545; stroke-linecap: round"/>
   </g>
   <g id="line2d_54">
    <path d="M 426.968248 37.316364 
L 440.129249 37.316364 
" clip-path="url(#p5396c13f30)" style="fill: none; stroke: #454545; stroke-linecap: round"/>
   </g>
   <g id="line2d_55">
    <path d="M 58.460211 185.109901 
L 84.782214 185.109901 
" clip-path="url(#p5396c13f30)" style="fill: none; stroke: #454545"/>
   </g>
   <g id="line2d_56">
    <path d="M 91.362715 183.267586 
L 117.684717 183.267586 
" clip-path="url(#p5396c13f30)" style="fill: none; stroke: #454545"/>
   </g>
   <g id="line2d_57">
    <path d="M 124.265218 181.496293 
L 150.58722 181.496293 
" clip-path="url(#p5396c13f30)" style="fill: none; stroke: #454545"/>
   </g>
   <g id="line2d_58">
    <path d="M 157.167721 179.345079 
L 183.489724 179.345079 
" clip-path="url(#p5396c13f30)" style="fill: none; stroke: #454545"/>
   </g>
   <g id="line2d_59">
    <path d="M 190.070224 178.670412 
L 216.392227 178.670412 
" clip-path="url(#p5396c13f30)" style="fill: none; stroke: #454545"/>
   </g>
   <g id="line2d_60">
    <path d="M 222.972728 176.118541 
L 249.29473 176.118541 
" clip-path="url(#p5396c13f30)" style="fill: none; stroke: #454545"/>
   </g>
   <g id="line2d_61">
    <path d="M 255.875231 65.326377 
L 282.197233 65.326377 
" clip-path="url(#p5396c13f30)" style="fill: none; stroke: #454545"/>
   </g>
   <g id="line2d_62">
    <path d="M 288.777734 55.804598 
L 315.099737 55.804598 
" clip-path="url(#p5396c13f30)" style="fill: none; stroke: #454545"/>
   </g>
   <g id="line2d_63">
    <path d="M 321.680237 55.489552 
L 348.00224 55.489552 
" clip-path="url(#p5396c13f30)" style="fill: none; stroke: #454545"/>
   </g>
   <g id="line2d_64">
    <path d="M 354.582741 55.394917 
L 380.904743 55.394917 
" clip-path="url(#p5396c13f30)" style="fill: none; stroke: #454545"/>
   </g>
   <g id="line2d_65">
    <path d="M 387.485244 55.245952 
L 413.807246 55.245952 
" clip-path="url(#p5396c13f30)" style="fill: none; stroke: #454545"/>
   </g>
   <g id="line2d_66">
    <path d="M 420.387747 51.083027 
L 446.70975 51.083027 
" clip-path="url(#p5396c13f30)" style="fill: none; stroke: #454545"/>
   </g>
   <g id="patch_15">
    <path d="M 55.169961 196 
L 55.169961 29.76 
" style="fill: none; stroke: #ffffff; stroke-width: 0.8; stroke-linejoin: miter; stroke-linecap: square"/>
   </g>
   <g id="patch_16">
    <path d="M 450 196 
L 450 29.76 
" style="fill: none; stroke: #ffffff; stroke-width: 0.8; stroke-linejoin: miter; stroke-linecap: square"/>
   </g>
   <g id="patch_17">
    <path d="M 55.169961 196 
L 450 196 
" style="fill: none; stroke: #ffffff; stroke-width: 0.8; stroke-linejoin: miter; stroke-linecap: square"/>
   </g>
   <g id="patch_18">
    <path d="M 55.169961 29.76 
L 450 29.76 
" style="fill: none; stroke: #ffffff; stroke-width: 0.8; stroke-linejoin: miter; stroke-linecap: square"/>
   </g>
   <g id="text_21">
    <!-- Execution Time Across Algorithms -->
    <g style="fill: #262626" transform="translate(117.032324 23.76) scale(0.18 -0.18)">
     <use xlink:href="#ArialMT-45"/>
     <use xlink:href="#ArialMT-78" x="66.699219"/>
     <use xlink:href="#ArialMT-65" x="116.699219"/>
     <use xlink:href="#ArialMT-63" x="172.314453"/>
     <use xlink:href="#ArialMT-75" x="222.314453"/>
     <use xlink:href="#ArialMT-74" x="277.929688"/>
     <use xlink:href="#ArialMT-69" x="305.712891"/>
     <use xlink:href="#ArialMT-6f" x="327.929688"/>
     <use xlink:href="#ArialMT-6e" x="383.544922"/>
     <use xlink:href="#ArialMT-20" x="439.160156"/>
     <use xlink:href="#ArialMT-54" x="465.193359"/>
     <use xlink:href="#ArialMT-69" x="522.527344"/>
     <use xlink:href="#ArialMT-6d" x="544.744141"/>
     <use xlink:href="#ArialMT-65" x="628.044922"/>
     <use xlink:href="#ArialMT-20" x="683.660156"/>
     <use xlink:href="#ArialMT-41" x="705.943359"/>
     <use xlink:href="#ArialMT-63" x="772.642578"/>
     <use xlink:href="#ArialMT-72" x="822.642578"/>
     <use xlink:href="#ArialMT-6f" x="855.943359"/>
     <use xlink:href="#ArialMT-73" x="911.558594"/>
     <use xlink:href="#ArialMT-73" x="961.558594"/>
     <use xlink:href="#ArialMT-20" x="1011.558594"/>
     <use xlink:href="#ArialMT-41" x="1033.841797"/>
     <use xlink:href="#ArialMT-6c" x="1100.541016"/>
     <use xlink:href="#ArialMT-67" x="1122.757812"/>
     <use xlink:href="#ArialMT-6f" x="1178.373047"/>
     <use xlink:href="#ArialMT-72" x="1233.988281"/>
     <use xlink:href="#ArialMT-69" x="1267.289062"/>
     <use xlink:href="#ArialMT-74" x="1289.505859"/>
     <use xlink:href="#ArialMT-68" x="1317.289062"/>
     <use xlink:href="#ArialMT-6d" x="1372.904297"/>
     <use xlink:href="#ArialMT-73" x="1456.205078"/>
    </g>
   </g>
  </g>
 </g>
 <defs>
  <clipPath id="p5396c13f30">
   <rect x="55.169961" y="29.76" width="394.830039" height="166.24"/>
  </clipPath>
 </defs>
</svg>
